<?xml version="1.0" standalone="no"?>
<!DOCTYPE svg PUBLIC "-//W3C//DTD SVG 20010904//EN"
 "http://www.w3.org/TR/2001/REC-SVG-20010904/DTD/svg10.dtd">
<svg version="1.0" xmlns="http://www.w3.org/2000/svg"
 width="320.000000pt" height="79.000000pt" viewBox="0 0 320.000000 79.000000"
 preserveAspectRatio="xMidYMid meet">

<g transform="translate(0.000000,79.000000) scale(0.100000,-0.100000)"
fill="#000000" stroke="none">
<path d="M20 405 l0 -385 1580 0 1580 0 0 385 0 385 -1580 0 -1580 0 0 -385z
m3110 -4 c0 -291 -2 -330 -16 -335 -9 -3 -532 -6 -1163 -6 -879 0 -1150 3
-1159 12 -9 9 -12 96 -12 328 0 174 3 320 7 323 3 4 532 7 1175 7 l1168 0 0
-329z m-2499 219 c33 -18 21 -45 -58 -135 -43 -48 -89 -100 -102 -116 l-23
-28 22 -35 c24 -40 75 -86 95 -86 7 0 18 7 25 15 18 21 30 19 30 -6 0 -25 -33
-57 -67 -65 -37 -10 -82 15 -123 67 l-37 47 -38 -49 c-44 -59 -63 -71 -87 -58
-27 14 -22 31 24 85 23 27 48 56 55 65 12 15 8 27 -33 94 -27 42 -66 97 -87
121 -45 51 -42 63 19 71 55 7 85 -20 130 -117 21 -44 41 -80 45 -80 15 0 99
123 111 162 15 51 56 71 99 48z"/>
<path d="M1034 447 c32 -42 32 -60 1 -101 -27 -35 -30 -46 -16 -46 5 0 19 16
31 35 12 19 28 35 35 35 7 0 23 -16 35 -35 12 -19 26 -35 31 -35 14 0 11 8
-16 48 -31 46 -31 55 1 98 21 27 23 34 10 34 -8 0 -22 -13 -31 -30 -9 -16 -22
-30 -30 -30 -8 0 -21 14 -30 30 -9 17 -22 30 -31 30 -11 0 -9 -8 10 -33z"/>
<path d="M1301 388 l2 -93 7 67 c3 38 9 71 13 74 9 10 24 -4 31 -29 3 -13 13
-41 22 -62 l16 -39 26 64 c15 35 32 63 37 62 6 -1 12 -32 15 -69 l6 -68 4 65
c7 90 2 120 -18 120 -12 0 -25 -20 -41 -61 -27 -69 -36 -68 -65 14 -13 34 -23
47 -37 47 -17 0 -19 -8 -18 -92z"/>
<path d="M1652 394 c-32 -86 -34 -120 -5 -76 21 31 102 33 110 2 3 -11 12 -20
20 -20 17 0 15 7 -26 105 -42 100 -57 98 -99 -11z m77 12 c12 -33 12 -39 0
-47 -18 -11 -30 -11 -48 0 -12 8 -13 16 -2 51 15 49 30 48 50 -4z"/>
<path d="M1910 389 c0 -68 3 -90 13 -87 6 3 14 20 17 39 7 49 33 49 65 0 14
-23 30 -41 36 -41 6 0 1 15 -10 34 -21 33 -21 33 -1 51 26 23 26 71 1 85 -11
5 -42 10 -70 10 l-51 0 0 -91z m117 55 c10 -27 -11 -49 -48 -49 -31 0 -34 3
-37 33 -3 31 -2 32 38 32 28 0 43 -5 47 -16z"/>
<path d="M2199 475 c-11 -18 -11 -163 0 -170 7 -4 11 5 11 23 0 16 7 35 16 43
13 11 21 6 54 -32 21 -24 41 -41 44 -38 4 4 -9 25 -29 49 -19 23 -35 44 -35
47 0 3 14 23 31 44 18 23 25 39 17 39 -7 0 -26 -18 -43 -40 -16 -22 -34 -39
-40 -37 -5 2 -12 21 -15 43 -3 21 -8 35 -11 29z"/>
<path d="M2460 390 l0 -90 60 0 c68 0 82 17 18 22 -40 3 -43 5 -43 33 0 27 3
30 40 36 l40 5 -40 5 c-35 3 -40 7 -43 32 -3 26 -2 27 42 27 25 0 46 5 46 10
0 6 -27 10 -60 10 l-60 0 0 -90z"/>
<path d="M2705 470 c3 -5 17 -10 31 -10 23 0 24 -2 24 -80 0 -47 4 -80 10 -80
6 0 10 33 10 80 0 78 1 80 24 80 14 0 28 5 31 10 4 6 -20 10 -65 10 -45 0 -69
-4 -65 -10z"/>
</g>
</svg>
