<?xml version="1.0" standalone="no"?>
<!DOCTYPE svg PUBLIC "-//W3C//DTD SVG 20010904//EN"
 "http://www.w3.org/TR/2001/REC-SVG-20010904/DTD/svg10.dtd">
<svg version="1.0" xmlns="http://www.w3.org/2000/svg"
 width="512.000000pt" height="512.000000pt" viewBox="0 0 512.000000 512.000000"
 preserveAspectRatio="xMidYMid meet">

<g transform="translate(0.000000,512.000000) scale(0.100000,-0.100000)"
fill="#000000" stroke="none">
<path d="M170 5103 c-47 -24 -77 -73 -85 -136 -3 -29 -5 -972 -3 -2097 3
-2024 3 -2045 23 -2079 11 -19 33 -43 48 -55 l28 -21 1178 -3 1178 -2 7 -108
c4 -59 12 -127 18 -152 15 -66 71 -178 115 -230 84 -103 224 -186 347 -209 96
-18 1462 -15 1547 3 174 37 326 157 403 321 63 132 61 87 61 1165 0 967 0 986
-20 1019 -11 19 -33 43 -48 55 -27 20 -42 21 -301 24 l-273 3 -6 157 c-4 86
-13 182 -22 212 -25 94 -74 179 -148 256 -56 59 -88 83 -159 119 -50 25 -96
45 -104 45 -11 0 -14 132 -16 808 -3 786 -4 808 -23 841 -11 19 -33 43 -48 55
l-28 21 -1817 3 c-1715 2 -1819 1 -1852 -15z m3460 -995 l0 -713 -88 -40
c-158 -72 -294 -234 -331 -395 -6 -25 -14 -116 -17 -202 l-7 -157 -273 -3
c-259 -3 -274 -4 -301 -24 -15 -12 -37 -36 -48 -55 -19 -33 -20 -55 -23 -771
l-3 -738 -1074 0 -1075 0 0 1905 0 1905 1620 0 1620 0 0 -712z m296 -1031 c58
-29 108 -82 135 -141 15 -34 19 -67 19 -188 l0 -148 -290 0 -290 0 0 145 c0
156 7 188 56 252 30 39 86 79 141 99 58 22 167 13 229 -19z m-734 -994 c3
-203 4 -220 25 -253 29 -47 71 -70 128 -70 57 0 99 23 128 70 21 33 22 50 25
253 l4 217 288 0 288 0 4 -217 c3 -197 5 -221 23 -251 28 -47 73 -72 130 -72
57 0 99 23 128 70 21 33 22 50 25 253 l4 217 169 0 169 0 0 -892 c0 -847 -1
-895 -19 -934 -27 -58 -77 -111 -135 -142 l-51 -27 -735 0 -735 0 -51 27 c-58
31 -108 84 -135 142 -18 39 -19 87 -19 934 l0 892 169 0 169 0 4 -217z"/>
<path d="M1184 4506 c-16 -7 -72 -59 -124 -114 l-94 -101 -33 29 c-80 71 -214
33 -239 -66 -16 -64 1 -110 76 -203 84 -106 109 -128 157 -137 75 -14 101 4
275 192 90 96 168 185 175 197 7 12 12 43 13 68 0 107 -107 178 -206 135z"/>
<path d="M1766 4341 c-44 -30 -66 -70 -66 -125 0 -58 24 -102 72 -131 32 -20
51 -20 743 -20 692 0 711 0 743 20 95 57 98 195 6 256 -28 18 -60 19 -749 19
-689 0 -721 -1 -749 -19z"/>
<path d="M1184 3596 c-16 -7 -72 -59 -124 -114 l-94 -101 -33 29 c-80 71 -214
33 -239 -66 -16 -64 1 -110 76 -203 84 -106 109 -128 157 -137 75 -14 101 4
275 192 90 96 168 185 175 197 7 12 12 43 13 68 0 107 -107 178 -206 135z"/>
<path d="M1766 3431 c-44 -30 -66 -70 -66 -125 0 -58 24 -102 72 -131 32 -19
51 -20 493 -20 455 0 460 0 495 22 48 30 70 71 70 130 0 54 -22 95 -66 124
-27 18 -55 19 -499 19 -444 0 -472 -1 -499 -19z"/>
<path d="M1184 2686 c-16 -7 -72 -59 -124 -114 l-94 -101 -33 29 c-80 71 -214
33 -239 -66 -16 -64 1 -110 76 -203 84 -106 109 -128 157 -137 75 -14 101 4
275 192 90 96 168 185 175 197 7 12 12 43 13 68 0 107 -107 178 -206 135z"/>
<path d="M1766 2521 c-66 -44 -88 -139 -47 -205 40 -63 67 -71 251 -71 147 0
169 2 198 20 95 57 98 195 6 256 -26 17 -49 19 -204 19 -155 0 -178 -2 -204
-19z"/>
</g>
</svg>
