<?xml version="1.0" standalone="no"?>
<!DOCTYPE svg PUBLIC "-//W3C//DTD SVG 20010904//EN"
 "http://www.w3.org/TR/2001/REC-SVG-20010904/DTD/svg10.dtd">
<svg version="1.0" xmlns="http://www.w3.org/2000/svg"
 width="305.000000pt" height="249.000000pt" viewBox="0 0 305.000000 249.000000"
 preserveAspectRatio="xMidYMid meet">

<g transform="translate(0.000000,249.000000) scale(0.100000,-0.100000)"
fill="#000000" stroke="none">
<path d="M1471 2224 c-90 -19 -166 -60 -229 -123 l-54 -53 -65 33 c-58 30 -73
33 -146 32 -113 0 -181 -27 -256 -102 -59 -58 -91 -119 -105 -207 -10 -57 21
-200 98 -456 78 -258 131 -409 148 -420 7 -4 327 -8 710 -8 602 0 699 2 711
15 22 22 154 427 213 655 49 188 31 305 -62 409 -107 119 -281 150 -429 75
l-52 -27 -56 55 c-67 66 -159 113 -247 127 -81 13 -99 13 -179 -5z m227 -194
c62 -32 92 -60 175 -169 l48 -62 47 36 c130 100 147 108 211 103 102 -7 171
-78 171 -175 0 -83 -71 -363 -147 -578 l-28 -80 -82 -3 c-63 -2 -83 0 -83 10
0 7 14 87 31 178 54 289 58 314 59 344 0 33 -25 66 -50 66 -33 0 -52 -26 -66
-95 -13 -61 -68 -382 -81 -472 l-5 -33 -134 0 -134 0 0 278 c0 294 -1 303 -47
317 -17 4 -29 -1 -48 -19 l-25 -25 0 -276 0 -275 -130 0 c-96 0 -132 3 -135
13 -3 6 -15 73 -29 147 -13 74 -34 193 -47 264 -27 152 -47 188 -95 171 -25
-9 -29 -16 -32 -52 -2 -23 6 -93 18 -155 29 -154 70 -381 70 -385 0 -2 -37 -3
-82 -1 l-83 3 -28 80 c-73 209 -147 497 -147 575 0 96 71 171 169 178 68 5 77
1 183 -80 l77 -58 78 97 c65 81 89 103 142 130 87 46 171 46 259 3z"/>
<path d="M857 794 c-11 -11 -8 -228 4 -284 14 -66 62 -127 124 -159 l50 -26
504 -3 c344 -2 521 1 558 8 69 15 130 61 162 125 24 46 26 58 26 195 l0 145
-85 0 -85 0 -5 -138 c-4 -108 -8 -140 -20 -147 -9 -6 -220 -10 -520 -10 -300
0 -511 4 -520 10 -12 7 -16 39 -20 147 l-5 138 -80 3 c-45 1 -84 0 -88 -4z"/>
</g>
</svg>
