<?xml version="1.0" standalone="no"?>
<!DOCTYPE svg PUBLIC "-//W3C//DTD SVG 20010904//EN"
 "http://www.w3.org/TR/2001/REC-SVG-20010904/DTD/svg10.dtd">
<svg version="1.0" xmlns="http://www.w3.org/2000/svg"
 width="255.000000pt" height="198.000000pt" viewBox="0 0 255.000000 198.000000"
 preserveAspectRatio="xMidYMid meet">

<g transform="translate(0.000000,198.000000) scale(0.100000,-0.100000)"
fill="#000000" stroke="none">
<path d="M554 1840 c-153 -22 -290 -146 -329 -297 -14 -53 -15 -132 -13 -560
l3 -498 32 -68 c80 -169 271 -272 443 -238 128 25 224 88 289 189 54 85 61
135 61 454 0 158 3 288 8 288 4 0 19 -22 33 -48 15 -26 76 -113 135 -194 60
-80 175 -236 257 -347 81 -110 169 -219 195 -242 92 -82 222 -122 333 -101
142 26 259 114 322 241 30 61 32 72 32 171 0 90 -4 113 -25 159 -20 47 -265
387 -515 716 -78 103 -130 147 -215 182 -128 51 -262 38 -378 -36 -67 -44
-136 -119 -154 -167 -16 -45 -28 -43 -28 4 0 180 -141 348 -326 387 -75 16
-84 16 -160 5z m162 -186 c59 -24 102 -61 127 -107 21 -40 22 -56 25 -289 l4
-248 -246 0 -246 0 0 223 c0 246 9 300 57 358 59 70 191 100 279 63z m798
-155 c26 -7 58 -30 95 -68 57 -58 271 -341 271 -359 0 -7 -191 -156 -367 -285
-13 -9 -263 319 -294 387 -22 49 -24 124 -5 170 8 19 31 53 52 76 70 78 155
105 248 79z"/>
</g>
</svg>
