<?xml version="1.0" standalone="no"?>
<!DOCTYPE svg PUBLIC "-//W3C//DTD SVG 20010904//EN"
 "http://www.w3.org/TR/2001/REC-SVG-20010904/DTD/svg10.dtd">
<svg version="1.0" xmlns="http://www.w3.org/2000/svg"
 width="3852.000000pt" height="3797.000000pt" viewBox="0 0 3852.000000 3797.000000"
 preserveAspectRatio="xMidYMid meet">

<g transform="translate(0.000000,3797.000000) scale(0.100000,-0.100000)"
fill="#000000" stroke="none">
<path d="M3699 29982 c-336 -41 -667 -182 -929 -396 -366 -298 -595 -705 -664
-1177 -14 -96 -16 -1014 -16 -9100 0 -9724 -3 -9062 50 -9288 58 -245 197
-525 358 -721 310 -377 736 -611 1222 -670 46 -5 274 -10 506 -10 l422 0 6 31
c9 45 7 21322 -2 21334 -11 15 -824 13 -953 -3z"/>
<path d="M5220 19330 c0 -5866 -3 -10675 -6 -10688 l-6 -22 626 2 626 3 0
10680 0 10680 -137 2 c-76 2 -355 4 -621 5 l-482 3 0 -10665z"/>
<path d="M8155 29992 c-3 -3 -5 -4813 -5 -10689 l0 -10683 1285 0 1285 0 0
10685 0 10685 -1253 1 c-688 1 -1264 2 -1279 3 -15 2 -30 1 -33 -2z"/>
<path d="M11900 19310 l0 -10690 315 0 315 0 0 10685 0 10685 -282 1 c-156 1
-298 3 -315 5 l-33 4 0 -10690z"/>
<path d="M13340 19308 l0 -10688 625 0 625 0 -2 10685 -3 10685 -623 2 -622 3
0 -10687z"/>
<path d="M16340 19307 l0 -10687 1280 2 1280 3 0 10679 c0 5874 -2 10681 -4
10683 -1 2 -577 4 -1280 6 l-1276 2 0 -10688z"/>
<path d="M19780 19334 c0 -5868 -3 -10679 -6 -10691 l-6 -23 631 0 631 0 0
10685 0 10685 -602 0 c-332 0 -613 3 -625 6 l-23 6 0 -10668z"/>
<path d="M21900 19307 l0 -10687 628 2 627 3 2 10683 c2 8538 0 10682 -10
10682 -6 0 -290 1 -630 2 l-617 3 0 -10688z"/>
<path d="M24830 29990 l-305 -5 -2 -10667 c-2 -5866 0 -10674 3 -10682 6 -15
41 -16 318 -14 l311 3 2 10681 c2 8537 0 10683 -10 10685 -6 2 -149 2 -317 -1z"/>
<path d="M27400 19308 l0 -10688 315 0 315 0 -2 10685 -3 10686 -313 2 -312 2
0 -10687z"/>
<path d="M32892 29990 l-612 -5 0 -10680 0 -10680 625 -3 625 -2 -2 10687 c-2
7115 -6 10687 -13 10687 -5 1 -286 -1 -623 -4z"/>
<path d="M33840 19307 l0 -10689 483 5 c439 4 490 6 577 25 151 33 238 58 335
97 245 99 418 211 609 395 301 290 494 676 546 1089 14 109 13 18049 0 18161
-25 201 -87 401 -184 592 -230 455 -611 779 -1097 933 -210 66 -298 74 -812
77 l-457 3 0 -10688z"/>
<path d="M28527 29983 c-9 -8 -9 -21326 -1 -21347 6 -14 130 -16 1285 -16
l1279 0 0 10685 0 10685 -1278 0 c-703 0 -1282 -3 -1285 -7z"/>
</g>
</svg>
